# xmcd CD database file
#
# Track frame offsets:
#	150
#	15457
#	33077
#	50885
#	66867
#	79732
#	99732
#	117230
#	140092
#	155320
#	171322
#	189135
#	204015
#
# Disc length: 2954 seconds
#
# Revision: 1
# Processed by: cddbd v1.5.2PL0 Copyright (c) Steve Scherf et al.
# Submitted via: CDex 1.70beta2
#
DISCID=a60b880d
DTITLE=Ryan Leslie - Just Right
DYEAR=2005
DGENRE=R&B
TTITLE0=The Way That U Move Girl
TTITLE1=Used 2 Be (Feat. Fabolous)
TTITLE2=Just Right
TTITLE3=Taste For Your Love
TTITLE4=My Everything
TTITLE5=Pleaze Pleaze Pleaze
TTITLE6=Over Easy
TTITLE7=Lay U Down
TTITLE8=Missin' U
TTITLE9=Overdose
TTITLE10=Back To The Love
TTITLE11=It's Love (That I Feel)
TTITLE12=Ready (To Love You)
EXTD=YEAR: 2005
EXTT0=
EXTT1=
EXTT2=
EXTT3=
EXTT4=
EXTT5=
EXTT6=
EXTT7=
EXTT8=
EXTT9=
EXTT10=
EXTT11=
EXTT12=
PLAYORDER=
